<svg width="36" height="36" viewBox="0 0 36 36" fill="none" xmlns="http://www.w3.org/2000/svg">
<path d="M6 9C6 8.60218 6.15804 8.22064 6.43934 7.93934C6.72064 7.65804 7.10218 7.5 7.5 7.5H28.5C28.8978 7.5 29.2794 7.65804 29.5607 7.93934C29.842 8.22064 30 8.60218 30 9C30 9.39782 29.842 9.77936 29.5607 10.0607C29.2794 10.342 28.8978 10.5 28.5 10.5H7.5C7.10218 10.5 6.72064 10.342 6.43934 10.0607C6.15804 9.77936 6 9.39782 6 9Z" fill="white"/>
<path d="M6 27C6 26.6022 6.15804 26.2206 6.43934 25.9393C6.72064 25.658 7.10218 25.5 7.5 25.5H28.5C28.8978 25.5 29.2794 25.658 29.5607 25.9393C29.842 26.2206 30 26.6022 30 27C30 27.3978 29.842 27.7794 29.5607 28.0607C29.2794 28.342 28.8978 28.5 28.5 28.5H7.5C7.10218 28.5 6.72064 28.342 6.43934 28.0607C6.15804 27.7794 6 27.3978 6 27Z" fill="white"/>
<path d="M16.5 16.5C16.1022 16.5 15.7206 16.658 15.4393 16.9393C15.158 17.2206 15 17.6022 15 18C15 18.3978 15.158 18.7794 15.4393 19.0607C15.7206 19.342 16.1022 19.5 16.5 19.5H28.5C28.8978 19.5 29.2794 19.342 29.5607 19.0607C29.842 18.7794 30 18.3978 30 18C30 17.6022 29.842 17.2206 29.5607 16.9393C29.2794 16.658 28.8978 16.5 28.5 16.5H16.5Z" fill="white"/>
</svg>
