<svg width="32" height="26" viewBox="0 0 32 26" fill="none" xmlns="http://www.w3.org/2000/svg">
<path d="M9.66565 11.1534C9.57629 9.99181 10.4947 9 11.6598 9H21.3402C22.5053 9 23.4237 9.9918 23.3344 11.1534L22.642 20.1534C22.5619 21.1954 21.693 22 20.6479 22H12.3521C11.307 22 10.4381 21.1954 10.358 20.1534L9.66565 11.1534Z" stroke="black" stroke-width="2"/>
<path d="M24 6H9" stroke="black" stroke-width="2" stroke-linecap="round"/>
<path d="M14.5 4C14.5 3.44772 14.9477 3 15.5 3H17.5C18.0523 3 18.5 3.44772 18.5 4V6H14.5V4Z" stroke="black" stroke-width="2"/>
<path d="M18.5 13V18" stroke="black" stroke-width="2" stroke-linecap="round"/>
<path d="M14.5 13V18" stroke="black" stroke-width="2" stroke-linecap="round"/>
</svg>
