<svg width="47" height="47" viewBox="0 0 47 47" fill="none" xmlns="http://www.w3.org/2000/svg">
<g clip-path="url(#clip0_274_542)">
<path d="M41.6574 11.8324C41.6574 11.8232 41.6574 11.8232 41.6482 11.814C41.6023 11.7039 41.5381 11.6121 41.4646 11.5203C41.4646 11.5203 41.4646 11.5111 41.4555 11.5111L37.4348 7.32515V3.96538C37.4348 1.85405 35.7182 0.137451 33.6068 0.137451H9.19805C7.03164 0.137451 5.27832 1.89995 5.27832 4.05718V39.5367C5.27832 41.7031 7.04082 43.4564 9.19805 43.4564H9.58359C9.75801 45.4576 11.4471 47.0365 13.485 47.0365H37.7928C39.9592 47.0365 41.7125 45.274 41.7125 43.1167V12.172C41.7217 12.0527 41.6941 11.9333 41.6574 11.8324ZM34.5064 7.04976L38.518 11.2173H34.5064V7.04976ZM7.19688 39.5458V4.05718C7.19688 2.94644 8.09648 2.04683 9.20723 2.04683H33.616C34.6717 2.04683 35.5254 2.90054 35.5254 3.9562V5.33315L34.2402 4.01128C34.2402 4.01128 34.2311 4.01128 34.2311 4.0021C34.2035 3.97456 34.1668 3.94702 34.1393 3.91948C34.1209 3.9103 34.1117 3.89194 34.0934 3.88276C34.0475 3.84604 33.9924 3.81851 33.9373 3.80015C33.9373 3.80015 33.9373 3.80015 33.9281 3.80015C33.8088 3.75425 33.6895 3.72671 33.5518 3.72671H13.4941C11.3277 3.72671 9.57441 5.48921 9.57441 7.64644V41.5562H9.20723C8.09648 41.547 7.19688 40.6474 7.19688 39.5458ZM37.802 45.1271H13.4941C12.3834 45.1271 11.4838 44.2275 11.4838 43.1167V7.63726C11.4838 6.52651 12.3834 5.6269 13.4941 5.6269H32.5879V12.172C32.5879 12.7044 33.0193 13.1267 33.5426 13.1267H39.8031V43.1167C39.8031 44.2275 38.9035 45.1271 37.802 45.1271Z" fill="white"/>
<path d="M26.8689 13.1359H28.6773C29.2098 13.1359 29.632 12.7045 29.632 12.1812C29.632 11.6488 29.2006 11.2266 28.6773 11.2266H26.8689C26.3365 11.2266 25.9143 11.658 25.9143 12.1812C25.9051 12.7045 26.3365 13.1359 26.8689 13.1359Z" fill="white"/>
<path d="M15.633 13.1359H21.6732C22.2057 13.1359 22.6279 12.7045 22.6279 12.1812C22.6279 11.6488 22.1965 11.2266 21.6732 11.2266H15.633C15.1006 11.2266 14.6783 11.658 14.6783 12.1812C14.6691 12.7045 15.1006 13.1359 15.633 13.1359Z" fill="white"/>
<path d="M34.9562 35.5344H21.6732C21.1408 35.5344 20.7186 35.9659 20.7186 36.4891C20.7186 37.0124 21.15 37.4438 21.6732 37.4438H34.9562C35.4887 37.4438 35.9109 37.0124 35.9109 36.4891C35.9109 35.9659 35.4887 35.5344 34.9562 35.5344Z" fill="white"/>
<path d="M17.9738 35.5344H15.633C15.1006 35.5344 14.6783 35.9659 14.6783 36.4891C14.6783 37.0124 15.1098 37.4438 15.633 37.4438H17.9738C18.5063 37.4438 18.9285 37.0124 18.9285 36.4891C18.9285 35.9659 18.5063 35.5344 17.9738 35.5344Z" fill="white"/>
<path d="M34.9563 29.5491H31.367C30.8346 29.5491 30.4123 29.9805 30.4123 30.5038C30.4123 31.027 30.8438 31.4584 31.367 31.4584H34.9563C35.4887 31.4584 35.9109 31.027 35.9109 30.5038C35.9109 29.9805 35.4887 29.5491 34.9563 29.5491Z" fill="white"/>
<path d="M15.633 31.4677H26.2264C26.7588 31.4677 27.1811 31.0363 27.1811 30.513C27.1811 29.9898 26.7496 29.5583 26.2264 29.5583H15.633C15.1006 29.5583 14.6783 29.9898 14.6783 30.513C14.6783 31.0363 15.1006 31.4677 15.633 31.4677Z" fill="white"/>
<path d="M34.9562 23.5549H27.7686C27.2361 23.5549 26.8139 23.9864 26.8139 24.5096C26.8139 25.0329 27.2453 25.4643 27.7686 25.4643H34.9562C35.4887 25.4643 35.9109 25.0329 35.9109 24.5096C35.9109 23.9864 35.4887 23.5549 34.9562 23.5549Z" fill="white"/>
<path d="M15.633 25.4733H22.9492C23.4816 25.4733 23.9039 25.0419 23.9039 24.5187C23.9039 23.9954 23.4725 23.564 22.9492 23.564H15.6238C15.0914 23.564 14.6691 23.9954 14.6691 24.5187C14.6691 25.0419 15.1006 25.4733 15.633 25.4733Z" fill="white"/>
<path d="M34.9562 17.386H21.6732C21.1408 17.386 20.7186 17.8174 20.7186 18.3407C20.7186 18.8731 21.15 19.2954 21.6732 19.2954H34.9562C35.4887 19.2954 35.9109 18.8639 35.9109 18.3407C35.9109 17.8174 35.4887 17.386 34.9562 17.386Z" fill="white"/>
<path d="M15.633 19.3046H17.3588C17.8912 19.3046 18.3135 18.8732 18.3135 18.35C18.3135 17.8175 17.882 17.3953 17.3588 17.3953H15.633C15.1006 17.3953 14.6783 17.8267 14.6783 18.35C14.6691 18.8732 15.1006 19.3046 15.633 19.3046Z" fill="white"/>
</g>
<defs>
<clipPath id="clip0_274_542">
<rect width="47" height="47" fill="white" transform="translate(0 -0.000244141)"/>
</clipPath>
</defs>
</svg>
